<svg xmlns="http://www.w3.org/2000/svg" xmlns:xlink="http://www.w3.org/1999/xlink" viewBox="0 0 75 75"><defs><linearGradient id="Dégradé_sans_nom_5" y1="37.5" x2="75" y2="37.5" gradientUnits="userSpaceOnUse"><stop offset="0" stop-color="#5686da"/><stop offset="1" stop-color="#2660aa"/></linearGradient></defs><g id="Calque_2" data-name="Calque 2"><g id="Calque_1-2" data-name="Calque 1"><path d="M75,37.5A37.49,37.49,0,0,1,53.22,71.55,36.18,36.18,0,0,1,47,73.78,37.51,37.51,0,1,1,75,37.5Z" style="fill:url(#Dégradé_sans_nom_5)"/><path d="M64.37,51.39A16.84,16.84,0,0,1,47.94,63.7h-.37a1.53,1.53,0,0,0,.14.21c1.41,2,3.86,5.39,5.51,7.65A36.18,36.18,0,0,1,47,73.78L34.38,56.89H48a8.71,8.71,0,0,0,1,0A10.2,10.2,0,1,0,41.2,39.07a16.4,16.4,0,0,1-2.07,2.54A16.93,16.93,0,0,1,31,46.22a16.46,16.46,0,0,1-1.86.34H29A17,17,0,1,1,42.78,23.28a3.34,3.34,0,0,1-2.05,4.4l-.07,0a3.37,3.37,0,0,1-4.2-1.88A10.21,10.21,0,1,0,27,39.88a10.46,10.46,0,0,0,2.45-.29,10.27,10.27,0,0,0,4.35-2.3,8.21,8.21,0,0,0,.82-.89,19.18,19.18,0,0,1,6.28-5.12A16,16,0,0,1,44,30.14a17.26,17.26,0,0,1,4-.46A17,17,0,0,1,64.37,51.39Z" style="fill:#fff"/></g></g></svg>