<svg xmlns="http://www.w3.org/2000/svg" viewBox="0 0 18 12"><g id="Calque_2" data-name="Calque 2"><g id="User"><circle cx="4" cy="5" r="2" style="fill:#ffffff"/><path d="M2.88,11H0v-.67c0-2,4-2,4-2a9.79,9.79,0,0,1,1.31.11C4,8.88,2.88,9.65,2.88,11Z" style="fill:#ffffff"/><circle cx="14" cy="5" r="2" style="fill:#ffffff"/><path d="M18,10.33V11H15.12c0-1.35-1.14-2.12-2.43-2.56A9.79,9.79,0,0,1,14,8.33S18,8.33,18,10.33Z" style="fill:#ffffff"/><circle cx="9" cy="3" r="3" style="fill:#ffffff"/><path d="M15,12H3V11C3,8,9,8,9,8s6,0,6,3Z" style="fill:#ffffff"/></g></g></svg>