<svg xmlns="http://www.w3.org/2000/svg" viewBox="0 0 18 19"><g id="Calque_2" data-name="Calque 2"><g id="homework_type" data-name="homework type"><path d="M16,1H10.73A2,2,0,0,0,7.27,1H2A2,2,0,0,0,0,3V17a2,2,0,0,0,2,2H16a2,2,0,0,0,2-2V3A2,2,0,0,0,16,1ZM9,1a.5.5,0,1,1-.5.5A.5.5,0,0,1,9,1Zm7,16H2V3H16Z" style="fill:#2660aa"/><polygon points="5 15 4 14 4 8 6 8 6 14 5 15" style="fill:#2660aa"/><path d="M4.5,5h1a.5.5,0,0,1,.5.5V7A0,0,0,0,1,6,7H4A0,0,0,0,1,4,7V5.5A.5.5,0,0,1,4.5,5Z" style="fill:#2660aa"/><path d="M14.5,6H14V5.5a.5.5,0,0,0-.5-.5h-1a.5.5,0,0,0-.5.5V14l1,1,1-1V9h.5a.5.5,0,0,0,.5-.5v-2A.5.5,0,0,0,14.5,6Z" style="fill:#2660aa"/><path d="M9.5,5h-1c-.28,0-.5.17-.5.38V11h2V5.38C10,5.17,9.78,5,9.5,5Z" style="fill:#2660aa"/><polygon points="10 12 8 12 8 14 8.5 14 8.5 14.5 9.5 14.5 9.5 14 10 14 10 12" style="fill:#2660aa"/></g></g></svg>