<svg xmlns="http://www.w3.org/2000/svg" xmlns:xlink="http://www.w3.org/1999/xlink" viewBox="0 0 813.38 1082"><defs><linearGradient id="Dégradé_sans_nom_5" x1="-2600.62" y1="960.91" x2="-2174.62" y2="960.91" gradientTransform="matrix(-1, 0, 0, 1, -1787.24, 0)" gradientUnits="userSpaceOnUse"><stop offset="0" stop-color="#5686da"/><stop offset="1" stop-color="#2660aa"/></linearGradient><linearGradient id="Dégradé_sans_nom_5-2" x1="88.75" y1="552" x2="537.38" y2="552" gradientTransform="matrix(1, 0, 0, 1, 0, 0)" xlink:href="#Dégradé_sans_nom_5"/><linearGradient id="Dégradé_sans_nom_5-3" x1="448.75" y1="213" x2="813.38" y2="213" gradientTransform="matrix(1, 0, 0, 1, 0, 0)" xlink:href="#Dégradé_sans_nom_5"/><linearGradient id="Dégradé_sans_nom_5-4" x1="0" y1="95.63" x2="385.74" y2="95.63" gradientTransform="matrix(1, 0, 0, 1, 0, 0)" xlink:href="#Dégradé_sans_nom_5"/></defs><g id="Calque_2" data-name="Calque 2"><g id="Calque_3" data-name="Calque 3"><path d="M387.38,1082h426V924.11A241.75,241.75,0,0,0,629.7,839.83C495.92,839.83,387.46,948.24,387.38,1082Z" style="opacity:0.8;fill:url(#Dégradé_sans_nom_5)"/><path d="M537.38,552A224.24,224.24,0,0,1,407.1,755.68a216.92,216.92,0,0,1-37,13.34,223.82,223.82,0,0,1-57,7.3C189.18,776.32,88.75,675.88,88.75,552S189.18,327.68,313.06,327.68,537.38,428.12,537.38,552Z" style="fill:url(#Dégradé_sans_nom_5-2)"/><path d="M473.79,635.09c-11.84,44.08-52.58,73.75-98.28,73.63-.71,0-1.43,0-2.21-.06a9.2,9.2,0,0,0,.84,1.26c8.43,11.84,23.09,32.24,33,45.76a216.92,216.92,0,0,1-37,13.34c-5.74-7.72-71.72-95.77-75.67-101h81.41a51.81,51.81,0,0,0,6.1-.3,61.06,61.06,0,0,0,54.86-64.37c-1.8-30.8-27.46-56.05-58.39-57.36a60.86,60.86,0,0,0-43.18,15.43,97.81,97.81,0,0,1-12.39,15.19,101.29,101.29,0,0,1-48.75,27.58,95.89,95.89,0,0,1-11.12,2c-.24,0-.48.06-.78.06-56,6.64-107.79-35-113.12-91.1a101.79,101.79,0,0,1,195.61-48.21,20,20,0,0,1-12.27,26.32,1.58,1.58,0,0,0-.41.12c-10.11,3.29-21.12-1.38-25.13-11.25a61,61,0,0,0-64.12-37.5c-27.64,3.29-49.95,25.9-53.06,53.53a61.08,61.08,0,0,0,60.66,68.08A62.42,62.42,0,0,0,265,564.5a61.42,61.42,0,0,0,26-13.76,48.91,48.91,0,0,0,4.91-5.32c10.4-12.62,22.91-23.45,37.56-30.63A95.67,95.67,0,0,1,352.07,508a103.4,103.4,0,0,1,23.74-2.75,101.48,101.48,0,0,1,75.37,33.38C473.26,563,483.72,598,473.79,635.09Z" style="fill:#fff"/><path d="M813.38,0V417.93a295.11,295.11,0,0,1-69,8.07c-163.29,0-295.68-132.39-295.68-295.68A294.27,294.27,0,0,1,479,0Z" style="opacity:0.75;fill:url(#Dégradé_sans_nom_5-3)"/><path d="M385.74,4A193.09,193.09,0,0,1,273.83,169.5,186,186,0,0,1,242,181a192.55,192.55,0,0,1-49.08,6.28C89.53,187.26,5.13,106.08,0,4Z" style="opacity:0.7;fill:url(#Dégradé_sans_nom_5-4)"/><line x1="813.38" y1="4" x2="478.96" y2="4" style="fill:none"/><line x1="813.38" y1="421.93" x2="813.38" y2="4" style="fill:none"/></g></g></svg>