<svg xmlns="http://www.w3.org/2000/svg" viewBox="0 0 13.83 14.5"><g id="Calque_2" data-name="Calque 2"><g id="User_-_copie" data-name="User - copie"><path d="M13.33,8.64l-.51-.3a6,6,0,0,0,0-2.18l.51-.3a1,1,0,0,0,.37-1.37l-1-1.73a1,1,0,0,0-1.37-.37l-.52.3A5.66,5.66,0,0,0,8.92,1.6V1a1,1,0,0,0-1-1h-2a1,1,0,0,0-1,1v.6A5.66,5.66,0,0,0,3,2.69l-.52-.3a1,1,0,0,0-1.37.37l-1,1.73A1,1,0,0,0,.51,5.86l.51.3A6,6,0,0,0,1,8.34l-.51.3A1,1,0,0,0,.14,10l1,1.73a1,1,0,0,0,1.37.37l.52-.3A5.66,5.66,0,0,0,4.92,12.9v.6a1,1,0,0,0,1,1h2a1,1,0,0,0,1-1v-.6a5.66,5.66,0,0,0,1.89-1.09l.52.3a1,1,0,0,0,1.37-.37l1-1.73A1,1,0,0,0,13.33,8.64ZM6.92,11.25a4,4,0,1,1,4-4A4,4,0,0,1,6.92,11.25Z" style="fill:#2660aa"/></g></g></svg>