<svg xmlns="http://www.w3.org/2000/svg" viewBox="0 0 18 20"><defs><style>.cls-1{fill:#2660aa;}</style></defs><g id="Calque_2" data-name="Calque 2"><g id="timetable_2" data-name="timetable 2"><path class="cls-1" d="M16,2H15V0H13V2H5V0H3V2H2A2,2,0,0,0,0,4V18a2,2,0,0,0,2,2H16a2,2,0,0,0,2-2V4A2,2,0,0,0,16,2Zm0,16H2V7H16Z"/><rect class="cls-1" x="4" y="9" width="2" height="2"/><rect class="cls-1" x="4" y="13" width="2" height="2"/><rect class="cls-1" x="8" y="13" width="2" height="2"/><rect class="cls-1" x="12" y="13" width="2" height="2"/><rect class="cls-1" x="8" y="9" width="2" height="2"/><rect class="cls-1" x="12" y="9" width="2" height="2"/></g></g></svg>